Coordinates
version=1
nRows=35
nColumns=38
inDegrees=no

Units are S.I. units (second, meters, Newtons, ...)
If the header above contains a line with 'inDegrees', this indicates whether rotational values are in degrees (yes) or radians (no).

endheader
time	pelvis_tilt	pelvis_list	pelvis_rotation	pelvis_tx	pelvis_ty	pelvis_tz	hip_flexion_r	hip_adduction_r	hip_rotation_r	knee_angle_r	ankle_angle_r	subtalar_angle_r	mtp_angle_r	hip_flexion_l	hip_adduction_l	hip_rotation_l	knee_angle_l	ankle_angle_l	subtalar_angle_l	mtp_angle_l	lumbar_extension	lumbar_bending	lumbar_rotation	arm_flex_r	arm_add_r	arm_rot_r	elbow_flex_r	pro_sup_r	wrist_flex_r	wrist_dev_r	arm_flex_l	arm_add_l	arm_rot_l	elbow_flex_l	pro_sup_l	wrist_flex_l	wrist_dev_l
1.06	2.56308	1.41002	-0.995698	0.862179	1.02928	0.949761	0.306396	0.0850282	-0.214148	0.568848	0.0571224	0	0	0.0672259	-0.135461	0.039029	1.24871	0.252199	0	0	-0.356102	0.200022	0.124699	0.325655	-0.417409	-0.0144277	1.27989	0.965341	0	0	0.589594	-0.376734	0.493377	0.802855	0.625077	0	0
1.07	2.60003	1.4084	-1.03976	0.863994	1.04027	0.953975	0.27869	0.0828653	-0.215633	0.552557	0.0655202	0	0	0.0823855	-0.131812	0.0351379	1.23598	0.253438	0	0	-0.364323	0.191843	0.133674	0.324566	-0.418076	-0.0162276	1.27982	0.964636	0	0	0.591875	-0.374746	0.495345	0.798827	0.625935	0	0
1.08	2.639	1.40638	-1.0861	0.86579	1.05118	0.958041	0.249902	0.080299	-0.216968	0.53448	0.0733474	0	0	0.0963569	-0.129064	0.0281144	1.21922	0.254871	0	0	-0.372932	0.182956	0.142746	0.322829	-0.418341	-0.0198345	1.28146	0.963713	0	0	0.594377	-0.373886	0.499166	0.796366	0.624984	0	0
1.09	2.67769	1.40473	-1.13301	0.867635	1.06212	0.961807	0.221881	0.0775581	-0.216888	0.516266	0.0803929	0	0	0.109463	-0.127619	0.0170795	1.19915	0.257803	0	0	-0.380541	0.17319	0.151704	0.320792	-0.417969	-0.0238537	1.28387	0.962895	0	0	0.595926	-0.374711	0.503785	0.796414	0.622425	0	0
1.1	2.7132	1.40304	-1.17748	0.869487	1.07316	0.965222	0.195238	0.0754357	-0.214042	0.499206	0.0864037	0	0	0.121699	-0.127427	0.00353962	1.17644	0.261124	0	0	-0.387064	0.16355	0.160369	0.31898	-0.417805	-0.026532	1.28691	0.961671	0	0	0.596037	-0.377222	0.508752	0.799191	0.61791	0	0
1.11	2.74392	1.40138	-1.21715	0.871204	1.08432	0.968232	0.170753	0.0738696	-0.208381	0.484823	0.0920269	0	0	0.133616	-0.127919	-0.0108704	1.15143	0.264612	0	0	-0.392141	0.154836	0.167984	0.317598	-0.418404	-0.0267763	1.29039	0.959957	0	0	0.594574	-0.380822	0.513112	0.803993	0.613027	0	0
1.12	2.77047	1.3994	-1.2522	0.872716	1.09557	0.970888	0.147816	0.0728225	-0.200092	0.47308	0.097868	0	0	0.145012	-0.128773	-0.0251926	1.12434	0.267561	0	0	-0.396269	0.147363	0.174426	0.316727	-0.420297	-0.0244166	1.29425	0.957358	0	0	0.591988	-0.385001	0.517294	0.809777	0.608034	0	0
1.13	2.79326	1.39687	-1.28254	0.874044	1.1069	0.973262	0.125677	0.0721242	-0.190695	0.463451	0.104392	0	0	0.15589	-0.130456	-0.0396223	1.0957	0.271338	0	0	-0.399851	0.141232	0.179579	0.316168	-0.422529	-0.0207491	1.29815	0.953558	0	0	0.588827	-0.389383	0.521121	0.815585	0.602327	0	0
1.14	2.81056	1.39397	-1.30567	0.875146	1.11827	0.97534	0.104012	0.0717825	-0.18242	0.454942	0.111403	0	0	0.166752	-0.1328	-0.0525558	1.06582	0.274619	0	0	-0.402788	0.136916	0.18327	0.315557	-0.424606	-0.0177773	1.30195	0.950505	0	0	0.585645	-0.393398	0.524924	0.820599	0.595461	0	0
1.15	2.82378	1.39111	-1.32298	0.876022	1.1297	0.977108	0.0826175	0.0713994	-0.176392	0.446687	0.119134	0	0	0.178076	-0.135569	-0.0641253	1.03509	0.276588	0	0	-0.404777	0.134037	0.185773	0.314531	-0.426129	-0.0159887	1.30567	0.947702	0	0	0.582735	-0.396539	0.529163	0.824199	0.58836	0	0
1.16	2.83614	1.38826	-1.33817	0.876705	1.14115	0.978631	0.0608567	0.0705156	-0.172432	0.437998	0.127724	0	0	0.189209	-0.138569	-0.0757261	1.00291	0.276847	0	0	-0.406111	0.131785	0.187489	0.313243	-0.427287	-0.0150173	1.30872	0.944304	0	0	0.58023	-0.398582	0.533431	0.826217	0.581203	0	0
1.17	2.84717	1.38514	-1.35083	0.877271	1.15262	0.979952	0.0382295	0.069571	-0.170415	0.42814	0.136591	0	0	0.199556	-0.141786	-0.0875698	0.968911	0.275179	0	0	-0.407203	0.130066	0.188291	0.312068	-0.427668	-0.0145494	1.31069	0.940443	0	0	0.57813	-0.399991	0.537507	0.827187	0.573722	0	0
1.18	2.87702	1.38205	-1.38068	0.87763	1.1637	0.981382	0.0153607	0.0641878	-0.170662	0.418494	0.145359	0	0	0.204407	-0.132258	-0.0833421	0.9235	0.271085	0	0	-0.409784	0.124739	0.186624	0.312626	-0.426489	-0.0151162	1.31037	0.938536	0	0	0.577866	-0.400885	0.541606	0.826084	0.568023	0	0
1.19	2.87247	1.37909	-1.37833	0.878156	1.17539	0.981973	-0.0067147	0.0658503	-0.169788	0.408138	0.154216	0	0	0.217081	-0.145102	-0.111211	0.893133	0.269402	0	0	-0.408849	0.125531	0.188537	0.311481	-0.427005	-0.0145807	1.31028	0.936902	0	0	0.575629	-0.400981	0.546092	0.824886	0.561588	0	0
1.2	2.88545	1.37667	-1.39391	0.878616	1.18663	0.982625	-0.0265144	0.0631827	-0.168464	0.40148	0.162628	0	0	0.224486	-0.145857	-0.125325	0.85208	0.266937	0	0	-0.409402	0.122153	0.190103	0.31194	-0.427013	-0.0139092	1.30855	0.935449	0	0	0.575459	-0.400205	0.549392	0.821922	0.556326	0	0
1.21	2.90014	1.3746	-1.41212	0.879024	1.19779	0.983041	-0.0440166	0.0594735	-0.167225	0.398128	0.171733	0	0	0.23053	-0.145521	-0.140628	0.808545	0.26516	0	0	-0.409972	0.117966	0.192285	0.313264	-0.426904	-0.0132358	1.30589	0.935002	0	0	0.575732	-0.398635	0.551149	0.817826	0.553055	0	0
1.22	2.91288	1.37293	-1.42906	0.879394	1.20893	0.983178	-0.0594185	0.0557731	-0.16502	0.397755	0.181455	0	0	0.235875	-0.144755	-0.156339	0.763285	0.263612	0	0	-0.410349	0.11384	0.19509	0.315328	-0.42681	-0.0125583	1.30254	0.935554	0	0	0.576294	-0.396444	0.551914	0.812821	0.550996	0	0
1.23	2.92219	1.37173	-1.44263	0.879687	1.2201	0.983026	-0.0734033	0.0525835	-0.161871	0.398965	0.191808	0	0	0.24092	-0.143562	-0.171271	0.716489	0.2618	0	0	-0.410252	0.110356	0.197981	0.317653	-0.426752	-0.0115015	1.29895	0.935881	0	0	0.576666	-0.393694	0.55136	0.807474	0.549865	0	0
1.24	2.92988	1.37075	-1.45419	0.879832	1.23129	0.982637	-0.0867497	0.0495464	-0.158181	0.400989	0.202875	0	0	0.245092	-0.141466	-0.184885	0.667802	0.259331	0	0	-0.410016	0.107382	0.200378	0.320134	-0.42686	-0.009646	1.29548	0.935194	0	0	0.576864	-0.390635	0.549736	0.802151	0.549415	0	0
1.25	2.93458	1.37009	-1.46162	0.879795	1.24255	0.981997	-0.100079	0.0471621	-0.15497	0.402488	0.214287	0	0	0.248836	-0.138789	-0.196721	0.617572	0.256346	0	0	-0.409293	0.105437	0.201704	0.322667	-0.4275	-0.0074459	1.29208	0.93532	0	0	0.576907	-0.387335	0.547187	0.796609	0.549678	0	0
1.26	2.93576	1.36973	-1.46424	0.879566	1.2539	0.981082	-0.113476	0.0455072	-0.15287	0.403471	0.225988	0	0	0.252221	-0.135562	-0.206684	0.565457	0.252114	0	0	-0.407946	0.104712	0.202053	0.325061	-0.428956	-0.00434138	1.28866	0.936018	0	0	0.577088	-0.383726	0.544127	0.790546	0.551204	0	0
1.27	2.93384	1.36935	-1.46222	0.879169	1.26537	0.97994	-0.127551	0.0445769	-0.152322	0.403583	0.237706	0	0	0.254749	-0.13179	-0.214817	0.511544	0.247093	0	0	-0.406325	0.105133	0.201538	0.327229	-0.431221	-0.000838298	1.28526	0.936581	0	0	0.577797	-0.379646	0.54074	0.783667	0.554109	0	0
1.28	2.92967	1.36904	-1.45686	0.878648	1.27699	0.97858	-0.142191	0.0441703	-0.153099	0.40284	0.249456	0	0	0.256195	-0.127248	-0.221181	0.455561	0.241293	0	0	-0.404357	0.106344	0.200618	0.329014	-0.434129	0.00278836	1.282	0.936835	0	0	0.579124	-0.374898	0.537228	0.775468	0.558797	0	0
1.29	2.91923	1.36952	-1.44474	0.878043	1.28882	0.976913	-0.156392	0.045162	-0.153706	0.401472	0.261091	0	0	0.257965	-0.123218	-0.226506	0.399843	0.236582	0	0	-0.401114	0.108936	0.199987	0.330116	-0.437422	0.00603865	1.27887	0.935834	0	0	0.58041	-0.369833	0.534316	0.767557	0.563491	0	0
1.3	2.90365	1.37088	-1.42673	0.877312	1.30081	0.974971	-0.16932	0.0471159	-0.154519	0.400912	0.272916	0	0	0.259773	-0.119065	-0.230078	0.343227	0.231463	0	0	-0.396569	0.112694	0.199105	0.330918	-0.440711	0.00891214	1.27539	0.933034	0	0	0.581125	-0.364229	0.530322	0.760106	0.568154	0	0
1.31	2.88351	1.37274	-1.4039	0.876452	1.31298	0.972816	-0.181339	0.0498904	-0.154812	0.401209	0.284576	0	0	0.260646	-0.114537	-0.231328	0.285123	0.224718	0	0	-0.391188	0.117367	0.19794	0.331675	-0.443843	0.0116952	1.27153	0.929528	0	0	0.580711	-0.358384	0.524474	0.753792	0.572475	0	0
1.32	2.85798	1.37464	-1.37516	0.875495	1.32534	0.9705	-0.192961	0.0537347	-0.154931	0.402025	0.295552	0	0	0.259802	-0.10996	-0.229875	0.225005	0.214833	0	0	-0.385323	0.123075	0.196126	0.332351	-0.446674	0.0143547	1.26735	0.926235	0	0	0.579325	-0.352818	0.517461	0.748906	0.576953	0	0
1.33	2.82617	1.37646	-1.33998	0.874414	1.33785	0.968003	-0.20428	0.0586863	-0.154452	0.403003	0.305784	0	0	0.257525	-0.105882	-0.225882	0.163812	0.202038	0	0	-0.379062	0.129938	0.194269	0.332746	-0.450169	0.018189	1.26349	0.921328	0	0	0.577763	-0.347598	0.511036	0.74502	0.581693	0	0
1.34	2.78856	1.37799	-1.29878	0.873205	1.35049	0.965334	-0.215397	0.0644521	-0.154424	0.404241	0.315869	0	0	0.254377	-0.102601	-0.219941	0.103095	0.186738	0	0	-0.372566	0.137823	0.192708	0.332514	-0.454127	0.0209989	1.25975	0.917108	0	0	0.577203	-0.342516	0.506769	0.741033	0.586721	0	0
1.35	2.7478	1.37937	-1.25392	0.871855	1.36326	0.96249	-0.226548	0.0705646	-0.155454	0.405169	0.325476	0	0	0.251447	-0.0996529	-0.21298	0.0452936	0.169621	0	0	-0.365686	0.146184	0.19165	0.331072	-0.458609	0.0216742	1.25656	0.914801	0	0	0.578238	-0.336797	0.50433	0.73582	0.591901	0	0
1.36	2.70322	1.38059	-1.20509	0.870524	1.3762	0.95948	-0.23806	0.0774093	-0.156564	0.405089	0.334175	0	0	0.249541	-0.0978628	-0.205245	0	0.15404	0	0	-0.358193	0.154818	0.191199	0.328264	-0.463222	0.0208949	1.25484	0.913059	0	0	0.580323	-0.330921	0.504273	0.729737	0.596002	0	0
1.37	2.66968	1.37914	-1.1627	0.869291	1.38857	0.956445	-0.251734	0.0874285	-0.155876	0.405599	0.34038	0	0	0.266578	-0.100292	-0.207262	0	0.157239	0	0	-0.354355	0.161872	0.188954	0.324839	-0.468245	0.0197752	1.25468	0.909785	0	0	0.586542	-0.324129	0.507339	0.720832	0.600841	0	0
1.38	2.63483	1.37817	-1.12198	0.868083	1.40131	0.953413	-0.265288	0.0937257	-0.157972	0.405754	0.348123	0	0	0.278859	-0.101577	-0.20543	0	0.16265	0	0	-0.349896	0.16854	0.1869	0.323077	-0.472452	0.0208399	1.25389	0.905845	0	0	0.590497	-0.319745	0.510986	0.714291	0.603129	0	0
1.39	2.60442	1.37691	-1.08672	0.867092	1.41436	0.950398	-0.279656	0.0992501	-0.158637	0.405807	0.355021	0	0	0.287642	-0.102382	-0.199146	0	0.170808	0	0	-0.345764	0.173647	0.183799	0.322719	-0.474932	0.0234632	1.25184	0.90121	0	0	0.592879	-0.318035	0.514383	0.710402	0.602093	0	0
1.4	2.57863	1.37554	-1.05805	0.866319	1.42775	0.947383	-0.294108	0.103343	-0.157572	0.407211	0.361512	0	0	0.292682	-0.102821	-0.189976	0	0.180122	0	0	-0.341906	0.176912	0.180913	0.322546	-0.475176	0.0255798	1.24925	0.89622	0	0	0.594154	-0.318278	0.517522	0.708449	0.598363	0	0
